<svg width="24" height="24" viewBox="0 0 24 24" fill="none" xmlns="http://www.w3.org/2000/svg">
<path d="M21.1473 1.71429C21.4598 1.71429 21.7277 1.82589 21.9509 2.04911C22.1741 2.27232 22.2857 2.54018 22.2857 2.85268V21.1473C22.2857 21.4598 22.1741 21.7277 21.9509 21.9509C21.7277 22.1741 21.4598 22.2857 21.1473 22.2857H15.9107V14.317H18.5759L18.9777 11.2098H15.9107V9.22768C15.9107 8.72768 16.0156 8.35268 16.2254 8.10268C16.4353 7.85268 16.8437 7.72768 17.4509 7.72768L19.0848 7.71429V4.94196C18.5223 4.86161 17.7277 4.82143 16.7009 4.82143C15.4866 4.82143 14.5156 5.17857 13.7879 5.89286C13.0603 6.60714 12.6964 7.61607 12.6964 8.91964V11.2098H10.0179V14.317H12.6964V22.2857H2.85268C2.54018 22.2857 2.27232 22.1741 2.04911 21.9509C1.82589 21.7277 1.71429 21.4598 1.71429 21.1473V2.85268C1.71429 2.54018 1.82589 2.27232 2.04911 2.04911C2.27232 1.82589 2.54018 1.71429 2.85268 1.71429H21.1473Z" fill="currentColor"/>
</svg>
