<svg width="24" height="24" viewBox="0 0 372.2 372.2" fill="currentColor" xmlns="http://www.w3.org/2000/svg"><path d="M268.2 87.5c-.6-2.4-.9-4.7-1.7-6.9-2.3-6.6-7.1-10.4-13.9-11.7-4.4-.8-8.7-.9-13.1-.4-9.5.9-18.9 2.8-28.3 4.7-25.5 5.3-50.3 12.8-74.9 20.8-21.2 6.9-42.1 14.2-62.8 22.4-15.8 6.3-31.5 12.9-46.9 20-.8.4-1.7.7-2.6 1.1-.1 0-.2 0-.4-.1.4-1.1.7-2.1 1.2-3.1l33.3-79.2c.9-2.1 2.3-3.4 4.5-4.1 22.2-7.4 44.4-14.9 66.6-22.2 21.2-6.9 42.7-13.2 64.3-18.7a383 383 0 0 1 31.8-6.9C236 1.4 246.7.2 257.6 0c6.1-.1 12.2 0 18.2.7 13.3 1.7 25.5 6.2 35.9 14.9 7.3 6.1 12.5 13.8 16.2 22.5 3 7 4.9 14.4 6.3 21.9 1.8 9.8 2.2 19.6 1.7 29.5-.5 9.4-2 18.6-4.2 27.8-3.9 16.2-10.5 31.3-19 45.6-7.8 13.3-16.8 25.7-26.4 37.7-5.4 6.7-10.8 13.4-16.1 20.1-.1.2-.3.3-.5.6-13.9-9-27.8-18.1-41.8-27.2-.3.5-.5 1-.7 1.4-7 16.9-13.9 33.9-20.9 50.8-.1.3-.2.5-.3.8-.7 1.6-1.8 2.4-3.6 2.4H54.5c.2-.5.3-.9.4-1.2 14.2-34.6 28.4-69.2 42.5-103.8.8-2 2-3.1 4-3.8 17.5-6.1 35-12.2 52.5-18.4 6.8-2.4 13.5-5.2 20.3-7.8 1.2-.5 2.4-.8 3.9-1.3-.2.6-.3.9-.4 1.1-14.8 33.6-29.6 67.2-44.3 100.8-2.2 5-3.7 10.3-5.5 15.5-.6 1.9-.8 3.9-.7 5.9 0 .4.1.9.2 1.3.7 2.7 2.6 3.8 5.3 2.9.7-.2 1.3-.5 1.9-.8 30.8-15.4 58.7-35.1 84.3-58.1 8-7.2 15.6-14.9 22.3-23.4 13.1-16.8 21.9-35.7 26.4-56.5.8-4.7 1.1-9.4.6-14.4z"></path><path d="M194.8 367.7c-3.9 1.5-7.6 2.9-11.7 4.4 5.9-14.1 11.7-27.9 17.6-41.9H56.6c-2.9 0-5.6-.9-7.8-2.8-5.4-4.7-8.9-10.3-9.7-17.6-.5-4.9-.1-9.7.5-14.5.5-4.3 1.5-8.4 2.8-12.5.1-.3.2-.6.3-.8.8-2.1 1.7-2.7 3.9-2.7h163.3c2.7 0 5.4.1 8.2.1.6 0 1.2 0 1.8-.1 1.3-.1 2.2-.7 2.9-1.8.4-.6.7-1.3 1-2 5.2-12.3 10.3-24.6 15.5-36.8.3-.8.8-1.5 1.2-2.3.6.3 1 .6 1.4.9 36 23 72 46 107.9 69 .7.4 1.6.7 1.2 2-2.8 1.1-5.7 2.2-8.6 3.3-42.2 16.1-84.5 32.2-126.7 48.2-6.9 2.6-13.9 5.2-20.9 7.9m41.9-29.7c.1-.1.3-.1.4-.2a25546.33 25546.33 0 0 0 85.6-32.6c-25.8-15.6-51.5-31.2-77.2-46.7-.2.3-.3.5-.4.7-12.6 29.9-25.2 59.7-37.8 89.6v.1s.1.1.2.1c9.6-3.6 19.3-7.3 29.2-11m-22.1-48.1h-44c-1.6 0-2.6.8-3.4 2-.2.2-.3.5-.4.8-3.6 8.5-7.1 17-10.7 25.5-.1.3-.2.6-.4 1.1.9.1 1.7.2 2.4.2h43c1.1 0 2.1-.3 2.7-1.2.4-.4.6-1 .9-1.5 2.6-6 5.2-12.1 7.7-18.1 1.2-2.8 2.3-5.6 3.5-8.5-.3 0-.7-.1-1.3-.3M122.4 305c-2 4.7-3.9 9.4-6 14.3 1.3.1 2.3.3 3.4.3 6.1 0 12.3 0 18.4.1 2.1 0 3.3-.8 4.1-2.7 3.2-7.9 6.6-15.9 9.8-23.8.4-.9.6-1.7 1-2.8-.8-.1-1.4-.3-2-.3h-19.9c-1.7 0-2.8.6-3.4 2.2-1.7 4.1-3.5 8.3-5.4 12.7m-31.7 4.4c-1.4 3.3-2.8 6.7-4.2 10.2H101c1.6 0 2.7-.9 3.4-2.3.5-1.1.9-2.2 1.3-3.3 2.8-6.9 5.6-13.8 8.3-20.7.4-1.1.9-2.1 1-3.4h-13.7c-1.1 0-1.9.6-2.5 1.4l-.9 1.5c-2.4 5.5-4.8 11-7.2 16.6z"></path></svg>
