<svg width="24" height="24" viewBox="0 0 24 24" fill="none" xmlns="http://www.w3.org/2000/svg">
<g clip-path="url(#clip0)">
<path d="M3.10424 1.32964C2.0544 1.95291 -0.0139221 4.329 -0.0335083 4.95217V5.98362C-0.0335083 7.29102 1.18865 8.44017 2.29826 8.44017C3.63058 8.44017 4.74074 7.33599 4.74084 6.02537C4.74084 7.33599 5.81284 8.44017 7.14534 8.44017C8.47794 8.44017 9.51555 7.33599 9.51555 6.02537C9.51555 7.33599 10.6555 8.44017 11.9879 8.44017H12.0121C13.3446 8.44017 14.4846 7.33599 14.4846 6.02537C14.4846 7.33599 15.5223 8.44017 16.8547 8.44017C18.1872 8.44017 19.2592 7.33599 19.2592 6.02537C19.2592 7.33599 20.3695 8.44017 21.7018 8.44017C22.8114 8.44017 24.0335 7.29121 24.0335 5.98362V4.95217C24.0139 4.32891 21.9456 1.95272 20.8961 1.32964C17.6332 1.21507 15.3712 1.19521 11.9999 1.19576C8.62874 1.19603 4.03279 1.24872 3.10396 1.32964H3.10424ZM9.49872 7.82445C9.37127 8.04652 9.21348 8.24974 9.02985 8.42813C8.52686 8.9199 7.83739 9.22482 7.07739 9.22482C6.34626 9.22546 5.64336 8.93912 5.12079 8.42776C4.93854 8.24928 4.80005 8.05838 4.67325 7.83613L4.6727 7.83649C4.54589 8.05912 4.36934 8.24992 4.18672 8.42859C3.66405 8.93957 2.96116 9.22574 2.23012 9.22509C2.13854 9.22509 2.04318 9.1998 1.96612 9.17332C1.859 10.2887 1.81385 11.3547 1.79785 12.1319L1.79766 12.1363C1.79564 12.531 1.79371 12.8555 1.79178 13.3065C1.81238 15.6467 1.55996 20.8917 2.82359 22.1804C4.78176 22.637 8.38497 22.8449 11.9998 22.8461H12.0004C15.6152 22.8449 19.2184 22.637 21.1765 22.1804C22.4401 20.8916 22.1878 15.6466 22.2084 13.3064C22.2062 12.8555 22.2045 12.531 22.2025 12.1362L22.2022 12.1318C22.1864 11.3544 22.1411 10.2884 22.034 9.17305C21.9569 9.19953 21.8617 9.22491 21.77 9.22491C21.039 9.22555 20.3361 8.93939 19.8134 8.4284C19.6308 8.24974 19.4542 8.05902 19.3274 7.83631L19.3268 7.83594C19.1999 8.0582 19.0615 8.24909 18.8792 8.42758C18.3567 8.93884 17.6538 9.22518 16.9227 9.22445C16.1628 9.22445 15.4732 8.91944 14.9703 8.42776C14.7866 8.24937 14.6288 8.04615 14.5015 7.82408C14.3754 8.04587 14.2191 8.24909 14.0369 8.42776C13.5143 8.93902 12.8113 9.22528 12.0801 9.22454C12.0537 9.22454 12.0272 9.22344 12.0007 9.22261H12.0001C11.9736 9.22344 11.9471 9.22454 11.9202 9.22454C11.1891 9.22528 10.4861 8.93912 9.96346 8.42785C9.78139 8.24918 9.62497 8.04597 9.499 7.82417L9.49872 7.82445ZM7.48934 10.4227L7.48916 10.4236H7.49063C8.2864 10.4253 8.99325 10.4236 9.86911 11.3796C10.5585 11.3073 11.2788 11.2712 11.9997 11.2723H12.0003C12.7212 11.2713 13.4415 11.3073 14.131 11.3796C15.0069 10.4235 15.7138 10.4252 16.5095 10.4236H16.5109L16.5107 10.4227C16.8867 10.4227 18.3906 10.4227 19.4385 13.3659L20.5641 17.4035C21.3982 20.4073 20.2971 20.4807 18.9235 20.4833C16.8865 20.4075 15.7586 18.9282 15.7586 17.4491C14.631 17.6339 13.3156 17.7263 12.0002 17.7264H11.9996C10.6841 17.7264 9.3687 17.6339 8.24125 17.4491C8.24125 18.9282 7.11325 20.4075 5.07638 20.4833C3.70277 20.4807 2.60171 20.4073 3.43582 17.4035L4.56171 13.366C5.60962 10.4228 7.11353 10.4228 7.48953 10.4228L7.48934 10.4227ZM11.9997 12.7357V12.7363C11.9978 12.7382 9.85532 14.7058 9.47012 15.4056L10.8732 15.3494V16.573C10.8732 16.6302 11.4361 16.6069 11.9997 16.5808H12.0003C12.5637 16.6069 13.1268 16.6302 13.1268 16.573V15.3494L14.5298 15.4056C14.1445 14.7058 12.0002 12.7363 12.0002 12.7363V12.7357L11.9999 12.7359L11.9997 12.7357Z" fill="currentColor"/>
</g>
<defs>
<clipPath id="clip0">
<rect width="24" height="24" fill="white"/>
</clipPath>
</defs>
</svg>
