<svg width="24" height="24" viewBox="0 0 24 24" fill="none" xmlns="http://www.w3.org/2000/svg">
<path d="M18.9984 4.45971C18.0203 5.43784 17.0462 6.40789 16.0923 7.36177C15.6801 7.11926 15.2799 6.84037 14.8434 6.63827C13.1822 5.87032 11.5048 5.87436 9.84767 6.63423C8.2956 7.34964 7.22451 8.5339 6.70311 10.1587C6.04833 12.1999 6.38784 14.1036 7.72165 15.789C8.68766 17.0137 9.97297 17.7251 11.521 17.9433C12.677 18.105 13.8087 17.9797 14.8879 17.5432C16.4076 16.9248 17.3696 15.8173 17.7455 14.2087C17.7495 14.1844 17.7495 14.1561 17.7535 14.1076C15.959 14.1076 14.1725 14.1076 12.3738 14.1076C12.3738 12.8021 12.3738 11.5208 12.3738 10.2153C12.4627 10.2113 12.5476 10.2032 12.6325 10.2032C15.5952 10.2032 18.5619 10.2072 21.5246 10.1951C21.755 10.1951 21.8035 10.2962 21.8358 10.478C22.0056 11.3713 22.0419 12.2686 21.953 13.174C21.8479 14.2168 21.6378 15.2313 21.2497 16.2094C20.4818 18.1535 19.2207 19.6813 17.4261 20.7565C15.3042 22.0297 13.0003 22.3934 10.5833 21.9812C8.25518 21.581 6.30296 20.4614 4.74281 18.687C3.74043 17.5472 3.04523 16.2377 2.637 14.7745C2.22877 13.3114 2.16006 11.824 2.40661 10.3325C2.70571 8.53795 3.44941 6.93333 4.62559 5.53889C6.00387 3.90598 7.7257 2.79851 9.79513 2.27711C12.3294 1.6385 14.7747 1.90526 17.0947 3.14611C17.7818 3.51392 18.4164 3.95448 18.9984 4.45971Z" fill="black"/>
</svg>
