<svg width="24" height="24" viewBox="0 0 24 24" fill="none" xmlns="http://www.w3.org/2000/svg">
<path d="M21.1308 11.242L18.3025 14.0702C18.1415 14.2315 17.9755 14.3797 17.802 14.5175C17.141 15.0477 16.3933 15.414 15.61 15.6205C14.8993 15.8147 14.157 15.8715 13.427 15.7925C12.748 15.7217 12.0765 15.5342 11.4488 15.2285C10.8583 14.9452 10.305 14.558 9.81726 14.0702C9.32951 13.5825 8.94226 13.0292 8.65926 12.4387C9.44076 11.8837 10.5333 11.958 11.2315 12.6562C11.9493 13.374 12.872 13.7627 13.8108 13.8212C14.4808 13.8617 15.163 13.7342 15.782 13.4375C16.183 13.2485 16.558 12.9867 16.8885 12.6562L19.7168 9.82775C21.2795 8.26525 21.2903 5.74425 19.7275 4.1815C18.1665 2.6205 15.6228 2.60825 14.06 4.171L11.8858 6.34525C11.0635 6.12425 10.215 6.0395 9.37026 6.0855C9.50826 5.91225 9.65676 5.746 9.81751 5.58525L12.6458 2.757C14.988 0.414748 18.7888 0.414748 21.131 2.757C23.4733 5.09925 23.4733 8.89975 21.1308 11.242Z" fill="black"/>
<path d="M14.0598 18.313L11.2313 21.1415C8.88901 23.4838 5.11126 23.5068 2.76726 21.1625C0.425007 18.8203 0.403757 14.9985 2.74601 12.6562L5.57426 9.82775C5.73526 9.66675 5.90126 9.5185 6.07451 9.3805C6.73576 8.85 7.48351 8.48425 8.26676 8.27725C8.97726 8.08275 9.71976 8.02625 10.45 8.10575C11.1288 8.1765 11.8005 8.364 12.4283 8.6695C13.0185 8.9525 13.572 9.33975 14.0598 9.8275C14.5475 10.3155 14.9348 10.8687 15.2175 11.459C14.4363 12.0142 13.344 11.94 12.6455 11.2415C11.9278 10.5238 11.005 10.135 10.0665 10.0765C9.39651 10.0358 8.71426 10.1633 8.09551 10.4603C7.69426 10.6493 7.31951 10.911 6.98901 11.2415L4.16026 14.0702C2.59776 15.6332 2.59776 18.1645 4.16026 19.727C5.72301 21.29 8.25451 21.29 9.81701 19.727L11.9913 17.5527C12.8115 17.772 13.6635 17.857 14.5068 17.813C14.3693 17.9862 14.2208 18.1522 14.0598 18.313Z" fill="black"/>
</svg>
