<svg width="24" height="24" viewBox="0 0 24 24" fill="none" xmlns="http://www.w3.org/2000/svg">
<path d="M16.32 14.9L17.42 16C17.82 15.98 18.25 16.13 18.56 16.44L21.56 19.44C21.825 19.7244 21.9692 20.1004 21.9624 20.489C21.9555 20.8776 21.7981 21.2484 21.5232 21.5232C21.2484 21.7981 20.8776 21.9555 20.489 21.9624C20.1004 21.9692 19.7244 21.825 19.44 21.56L16.44 18.56C16.2908 18.4115 16.1745 18.2332 16.0987 18.0368C16.0228 17.8404 15.9892 17.6303 16 17.42L14.9 16.32C13.2927 17.5686 11.27 18.1576 9.24363 17.9671C7.2173 17.7767 5.33973 16.8211 3.99324 15.2949C2.64675 13.7687 1.93258 11.7867 1.99615 9.75238C2.05972 7.71811 2.89624 5.78455 4.33539 4.34539C5.77455 2.90624 7.70811 2.06972 9.74238 2.00615C11.7767 1.94258 13.7587 2.65675 15.2849 4.00324C16.8111 5.34973 17.7667 7.22729 17.9571 9.25363C18.1476 11.28 17.5586 13.3027 16.31 14.91L16.32 14.9ZM10 16C11.5913 16 13.1174 15.3679 14.2426 14.2426C15.3679 13.1174 16 11.5913 16 10C16 8.4087 15.3679 6.88258 14.2426 5.75736C13.1174 4.63214 11.5913 4 10 4C8.4087 4 6.88258 4.63214 5.75736 5.75736C4.63214 6.88258 4 8.4087 4 10C4 11.5913 4.63214 13.1174 5.75736 14.2426C6.88258 15.3679 8.4087 16 10 16V16Z" fill="black"/>
</svg>
