<?xml version="1.0" encoding="UTF-8" standalone="no"?>
<!DOCTYPE svg PUBLIC "-//W3C//DTD SVG 1.1//EN" "http://www.w3.org/Graphics/SVG/1.1/DTD/svg11.dtd">
<svg width="100%" height="100%" viewBox="0 0 261 261" version="1.1" xmlns="http://www.w3.org/2000/svg" xmlns:xlink="http://www.w3.org/1999/xlink" xml:space="preserve" xmlns:serif="http://www.serif.com/" style="fill-rule:evenodd;clip-rule:evenodd;stroke-linejoin:round;stroke-miterlimit:2;">
    <g transform="matrix(1,0,0,1,-0.364,12.774)">
        <path d="M34.123,1.457C22.706,8.235 0.213,34.075 0,40.852L0,52.069C0,66.287 13.291,78.784 25.358,78.784C39.847,78.784 51.92,66.776 51.921,52.523C51.921,66.776 63.579,78.784 78.07,78.784C92.562,78.784 103.846,66.776 103.846,52.523C103.846,66.776 116.243,78.784 130.733,78.784L130.996,78.784C145.487,78.784 157.884,66.776 157.884,52.523C157.884,66.776 169.169,78.784 183.659,78.784C198.15,78.784 209.808,66.776 209.808,52.523C209.808,66.776 221.883,78.784 236.371,78.784C248.438,78.784 261.729,66.289 261.729,52.069L261.729,40.852C261.516,34.074 239.023,8.233 227.609,1.457C192.125,0.211 167.526,-0.005 130.863,0.001C94.202,0.004 44.221,0.577 34.12,1.457L34.123,1.457ZM103.663,72.088C102.277,74.503 100.561,76.713 98.564,78.653C93.094,84.001 85.596,87.317 77.331,87.317C69.38,87.324 61.736,84.21 56.053,78.649C54.071,76.708 52.565,74.632 51.186,72.215L51.18,72.219C49.801,74.64 47.881,76.715 45.895,78.658C40.211,84.215 32.567,87.327 24.617,87.32C23.621,87.32 22.584,87.045 21.746,86.757C20.581,98.887 20.09,110.479 19.916,118.931L19.914,118.979C19.892,123.272 19.871,126.801 19.85,131.705C20.074,157.155 17.329,214.194 31.071,228.209C52.366,233.174 91.551,235.435 130.862,235.449L130.869,235.449C170.18,235.435 209.364,233.174 230.659,228.209C244.401,214.193 241.657,157.154 241.881,131.704C241.857,126.801 241.838,123.272 241.817,118.978L241.813,118.93C241.641,110.476 241.149,98.884 239.984,86.754C239.146,87.042 238.11,87.318 237.113,87.318C229.163,87.325 221.519,84.213 215.835,78.656C213.849,76.713 211.929,74.639 210.55,72.217L210.543,72.213C209.163,74.63 207.658,76.706 205.676,78.647C199.994,84.207 192.35,87.321 184.399,87.313C176.135,87.313 168.636,83.996 163.166,78.649C161.169,76.709 159.453,74.499 158.068,72.084C156.697,74.496 154.997,76.706 153.016,78.649C147.332,84.209 139.687,87.322 131.736,87.314C131.448,87.314 131.16,87.302 130.872,87.293L130.865,87.293C130.577,87.302 130.289,87.314 129.997,87.314C122.046,87.322 114.401,84.21 108.717,78.65C106.737,76.707 105.036,74.497 103.666,72.085L103.663,72.088ZM81.811,100.344L81.809,100.354L81.825,100.354C90.479,100.372 98.166,100.354 107.691,110.75C115.188,109.964 123.021,109.571 130.861,109.583L130.868,109.583C138.708,109.572 146.541,109.964 154.039,110.75C163.564,100.353 171.252,100.371 179.905,100.354L179.92,100.354L179.918,100.344C184.007,100.344 200.362,100.344 211.758,132.351L223.999,176.26C233.07,208.926 221.095,209.725 206.157,209.753C184.005,208.929 171.739,192.841 171.739,176.756C159.477,178.766 145.172,179.771 130.867,179.772L130.86,179.772C116.554,179.772 102.249,178.766 89.988,176.756C89.988,192.841 77.721,208.929 55.57,209.753C40.632,209.725 28.658,208.927 37.729,176.26L49.973,132.352C61.369,100.345 77.724,100.345 81.813,100.345L81.811,100.344ZM130.861,125.498L130.861,125.504C130.84,125.525 107.541,146.923 103.352,154.533L118.61,153.922L118.61,167.228C118.61,167.851 124.732,167.597 130.861,167.313L130.868,167.313C136.995,167.597 143.118,167.851 143.118,167.228L143.118,153.922L158.376,154.533C154.186,146.923 130.867,125.504 130.867,125.504L130.867,125.498L130.863,125.5L130.861,125.498Z" style="fill-rule:nonzero;"/>
    </g>
</svg>
