<svg width="24" height="24" viewBox="0 0 46.093 46.093" xmlns="http://www.w3.org/2000/svg">
<path d="M34.137,20.862c-0.475-0.761-1.307-1.232-2.204-1.232h-6.356l6.707-16.032c0.335-0.802,0.248-1.717-0.234-2.44
C31.567,0.435,30.757,0,29.888,0h-8.444c-1.15,0-2.163,0.761-2.49,1.863l-7.283,24.565c-0.233,0.786-0.082,1.627,0.409,2.284
c0.49,0.657,1.261,1.035,2.081,1.035h6.807l-1.189,14.106c-0.083,0.987,0.548,1.898,1.503,2.164
c0.955,0.264,1.962-0.187,2.399-1.076l10.582-21.56C34.659,22.578,34.61,21.623,34.137,20.862z"/>
</svg>
