<svg width="24" height="24" xmlns="http://www.w3.org/2000/svg" viewBox="0 0 360 360" style="enable-background:new 0 0 360 360;" xml:space="preserve">
<path d="M180,0C97.157,0,30,67.157,30,150v105v0.667h0.016c0.337,13.559,10.867,27.961,23.701,32.239L105,305v30
c0,13.75,11.25,25,25,25h100c13.75,0,25-11.25,25-25v-30l51.283-17.094c12.834-4.278,23.364-18.681,23.701-32.239H330V255V150
C330,67.157,262.843,0,180,0z M235,160c24.853,0,45,20.146,45,45s-20.147,45-45,45s-45-20.146-45-45S210.146,160,235,160z M125,160
c24.854,0,45,20.146,45,45s-20.146,45-45,45s-45-20.146-45-45S100.146,160,125,160z M200,280c0,11.046-8.954,20-20,20
s-20-8.954-20-20s20-40,20-40S200,268.954,200,280z"/>
</svg>
