<svg width="24" height="24" xmlns="http://www.w3.org/2000/svg" viewBox="0 0 511.96 511.96" style="enable-background:new 0 0 511.96 511.96;" xml:space="preserve">
<path d="M302.728,390.351c16.49,15.934,26.368,25.759,55.905,24.541c43.494-1.783,83.871-25.459,106.364-62.729
c38.78-64.247,17.576-128.53-23.702-166.824L272.705,6.528c-9.507-8.704-24.082-8.704-33.589,0L68.073,185.34
c-40.13,37.226-57.256,99.037-23.729,161.483c21.283,39.645,61.767,66.357,106.726,68.087c29.281,1.121,40.801-8.66,57.759-24.488
c4.458-4.167,11.767-1.033,11.767,5.076l0.009,29.987c0,16.172-4.228,32.071-12.253,46.115l-15.519,27.154
c-3.354,5.888,0.892,13.206,7.671,13.206h110.813c6.78,0,11.034-7.318,7.671-13.206l-15.519-27.154
c-8.024-14.045-12.244-29.943-12.244-46.115v-30.296C291.226,389.213,298.429,386.202,302.728,390.351"/>
<path style="fill:#2A2D33;" d="M427.21,329.362c-8.701,14.419-21.869,26.091-37.482,33.362c-10.397,4.841-21.597,7.606-32.91,8.072
c-4.871,0.201-8.657,4.312-8.457,9.184c0.201,4.871,4.312,8.657,9.184,8.457c13.661-0.563,27.144-3.891,39.635-9.707
c18.759-8.735,34.611-22.785,45.145-40.244c19.021-31.51,20.189-64.061,7.087-94.822c-1.911-4.485-7.096-6.573-11.581-4.662
c-4.485,1.911-6.573,7.096-4.662,11.581C444.131,276.316,443.177,302.911,427.21,329.362z"/>
</svg>
