<svg width="24" height="24" xmlns="http://www.w3.org/2000/svg" viewBox="0 0 296.084 296.084" style="enable-background:new 0 0 296.084 296.084;" xml:space="preserve">
<path d="M191.27,84.676l24.919-21.389c4.182-3.572,7.52-11.037,7.52-16.537v-37c0-5.5-4.167-9.75-9.667-9.75h-58.333v76.689
C168.709,77.51,180.064,80.221,191.27,84.676z"/>
<path d="M140.709,0H82.042c-5.5,0-10.333,4.25-10.333,9.75v37c0,5.5,3.588,12.922,7.77,16.494l24.928,21.428
c11.508-4.574,24.302-7.307,36.302-8.045V0z"/>
<path d="M148.041,91.416c-56.516,0-102.332,45.816-102.332,102.334s45.816,102.334,102.332,102.334
c56.518,0,102.334-45.816,102.334-102.334S204.559,91.416,148.041,91.416z M148.041,275.377c-45.008,0-81.625-36.619-81.625-81.627
c0-45.01,36.617-81.627,81.625-81.627c45.01,0,81.627,36.617,81.627,81.627C229.668,238.758,193.051,275.377,148.041,275.377z"/>
<path d="M148.041,127.123c-36.736,0-66.625,29.889-66.625,66.627s29.889,66.627,66.625,66.627
c36.738,0,66.627-29.889,66.627-66.627S184.779,127.123,148.041,127.123z"/>
</svg>
