<?xml version="1.0" encoding="iso-8859-1"?>
<!-- Generator: Adobe Illustrator 16.0.0, SVG Export Plug-In . SVG Version: 6.00 Build 0)  -->
<!DOCTYPE svg PUBLIC "-//W3C//DTD SVG 1.1//EN" "http://www.w3.org/Graphics/SVG/1.1/DTD/svg11.dtd">
<svg version="1.1" id="Capa_1" xmlns="http://www.w3.org/2000/svg" xmlns:xlink="http://www.w3.org/1999/xlink" x="0px" y="0px"
	 width="94.812px" height="94.812px" viewBox="0 0 94.812 94.812" style="enable-background:new 0 0 94.812 94.812;"
	 xml:space="preserve">
<g>
	<path d="M49.916,1.295C49.355,0.484,48.417,0,47.406,0S45.457,0.484,44.9,1.291c-3.095,4.446-30.231,43.93-30.231,60.784
		c0,18.052,14.686,32.737,32.737,32.737c18.05,0,32.737-14.687,32.737-32.737C80.143,45.22,53.007,5.737,49.916,1.295z
		 M47.33,82.719c-0.402,2.166-2.293,3.68-4.42,3.68c-0.272,0-0.549-0.025-0.826-0.076c-15.646-2.902-20.04-18.395-20.178-26.18
		c-0.044-2.484,1.935-4.534,4.42-4.578c0.026-0.001,0.054-0.001,0.081-0.001c2.443,0,4.445,1.954,4.497,4.405
		c0.017,0.646,0.539,15.225,12.822,17.504C46.17,77.926,47.783,80.274,47.33,82.719z"/>
</g>
<g>
</g>
<g>
</g>
<g>
</g>
<g>
</g>
<g>
</g>
<g>
</g>
<g>
</g>
<g>
</g>
<g>
</g>
<g>
</g>
<g>
</g>
<g>
</g>
<g>
</g>
<g>
</g>
<g>
</g>
</svg>
